<?xml version="1.0" encoding="UTF-8"?>
<mxfile host="app.diagrams.net" modified="" agent="5.0 (Windows)" etag="idm1" version="13.10.8" type="device">
  <diagram id="idm2" name="Page-1">
    <mxGraphModel dx="0" dy="0" grid="1" gridSize="10" guides="1" tooltips="1" connect="1" arrows="1" fold="1" page="1" pageScale="1" pageWidth="850" pageHeight="1100" math="0" shadow="0">
      <root>
        <mxCell id="0"/>
        <mxCell id="1" parent="0"/>
        <mxCell id="relate-P3-idm13" style="edgeStyle=orthogonalEdgeStyle;curved=1;rounded=1;orthogonalLoop=1;jettySize=auto;html=1;entryX=0.46;entryY=0.013;entryDx=0;entryDy=0;entryPerimeter=0;endArrow=none;endFill=0;" parent="1" source="F1" target="F2" edge="1">
          <mxGeometry relative="1" as="geometry"/>
        </mxCell>
        <mxCell id="F1" value="Kronos &amp;amp; GAIA" style="rounded=1;whiteSpace=wrap;html=1;fillColor=#f8cecc;strokeColor=#b85450;fontColor=#000000;" parent="1" vertex="1">
          <mxGeometry width="240" height="60" x="34" y="72" as="geometry"/>
        </mxCell>
        <mxCell id="relate-P5-idm20" style="edgeStyle=orthogonalEdgeStyle;curved=1;rounded=1;orthogonalLoop=1;jettySize=auto;html=1;entryX=0.46;entryY=0.013;entryDx=0;entryDy=0;entryPerimeter=0;endArrow=none;endFill=0;" parent="1" source="F2" target="P5" edge="1">
          <mxGeometry relative="1" as="geometry"/>
        </mxCell>
        <mxCell id="F2" value="Poseidon &amp;amp; Dittie Jackson" style="rounded=1;whiteSpace=wrap;html=1;fillColor=#f8cecc;strokeColor=#b85450;fontColor=#000000;" parent="1" vertex="1">
          <mxGeometry width="240" height="60" x="58" y="128" as="geometry"/>
        </mxCell>
        <mxCell id="P5" value="Percy Jackson" style="ellipse;whiteSpace=wrap;html=1;fillColor=#556854;strokeColor=#023406;fontColor=#ffffff;" parent="1" vertex="1">
          <mxGeometry width="120" height="60" x="40" y="184" as="geometry"/>
        </mxCell>
      </root>
    </mxGraphModel>
  </diagram>
</mxfile>
